<svg xmlns="http://www.w3.org/2000/svg" width="27.226999" height="25" viewBox="0 0 7.2038102 6.6145833">
  <path d="M3.601847 0a1.5875 1.5875 0 00-1.5875 1.5875 1.5875 1.5875 0 001.5875 1.5875 1.5875 1.5875 0 001.5875-1.5875A1.5875 1.5875 0 003.601847 0zm0 .58188A1.0054166 1.0054166 0 014.60747 1.5875a1.0054166 1.0054166 0 01-1.005623 1.00562A1.0054166 1.0054166 0 012.5962239 1.5875 1.0054166 1.0054166 0 013.601847.58188zm0 3.175A3.7041667 3.7041667 0 000 6.61458h.5999639A3.1220833 3.1220833 0 013.601847 4.33927a3.1220833 3.1220833 0 013.004984 2.27531h.596863a3.7041667 3.7041667 0 00-3.601847-2.8577z" fill="#0a2e57" paint-order="fill markers stroke"/>
</svg>
