<svg xmlns="http://www.w3.org/2000/svg" width="50" height="50" viewBox="0 0 13.229166 13.229167">
  <g fill="#fff">
    <path d="M0 1.15036437v12.07879396h4.10899188c-.32884012-.09888075-.65901031-.19178565-.93780804-.25107988-.89832276-.19105402-2.6827223-.32410079-2.6827223-.32410079V1.15036437z"/>
    <path d="M.97692304-.00000782S2.63342713.08694862 3.64897697.2541876c1.01554994.16722812 2.70102295.89616229 2.70102295.89616229v12.07880497s-1.79207086-.63508642-2.69039372-.8261406c-.89832276-.19105419-2.68268316-.32422799-2.68268316-.32422799z"/>
    <g>
      <path d="M13.229166 1.15036437v12.07879396H9.12017412c.32884012-.09888075.65901031-.19178565.93780804-.25107988.89832276-.19105402 2.6827223-.32410079 2.6827223-.32410079V1.15036437z"/>
      <path d="M12.25224296-.00000782S10.59573887.08694862 9.58018903.2541876c-1.01554994.16722812-2.70102295.89616229-2.70102295.89616229v12.07880497s1.79207086-.63508642 2.69039372-.8261406c.89832276-.19105419 2.68268316-.32422799 2.68268316-.32422799z"/>
    </g>
  </g>
</svg>
