<svg xmlns="http://www.w3.org/2000/svg" height="50" width="56" version="1.1" x="0" y="0" viewBox="0 0 10.64 8.4988607" xml:space="preserve" id="svg26" fill="#000">
  <style type="text/css" id="style2">
  </style>
  <g id="g24" transform="matrix(.18272 0 0 .18271 .09140183 -.40916832)" stroke="#eee" stroke-width="1.00048447" stroke-miterlimit="4" stroke-dasharray="none" stroke-opacity="1" fill="#eee" fill-opacity="1">
    <path d="M23.328125 50.993164c-5.458496 0-9.137207-2.21875-11.37793-6.801758-3.649902.121094-5.7988278-1.416015-6.9907223-2.773437-2.2661133-2.583985-2.7978516-6.453125-2.3525391-9.200196C1.0102539 30.452148 0 27.707031 0 25.051758c0-3.854492 1.6391602-7.244141 4.2280273-8.858399-.0058593-.128906-.0092773-.259765-.0092773-.391601 0-4.538086 2.7587891-8.1396486 6.783203-8.9726564C12.409668 3.4257812 17.128418 0 22.492187 0h5.405762c.552246 0 1 .4472656 1 1v48.539062c0 .483399-.345215.897461-.820801.983399-1.71289.3125-3.294433.470703-4.749023.470703zm-10.757812-8.84082c.393554 0 .753906.232422.91455.596679 2.279297 5.178711 6.434082 7.029297 13.413086 5.945313V2h-4.405762c-5.154296 0-9.059081 3.5488281-9.787597 6.0019531-.112305.3779297-.436035.6542969-.82666.7060547-3.3320316.4433594-5.65918 3.3603512-5.65918 7.0937502 0 .288086.020508.569336.050293.847656.043945.417969-.1772461.818359-.5546875 1.003906C3.4926758 18.741211 2 21.714844 2 25.051758c0 2.308594.9545898 4.766601 2.3754883 6.118164.2543945.242187.3632812.598633.2871094.941406-.5229492 2.353516-.072266 5.852539 1.800293 7.987305 1.3989258 1.59375 3.4174805 2.28418 6.0190433 2.057617.0293-.0029.05908-.0039.08838-.0039z" id="path4"/>
    <path d="M19.805664 16.775391c-4.705566 0-9.05957-1.097657-9.05957-9.0585942h2c0 5.9335942 2.480957 7.0585942 7.05957 7.0585942z" id="path6"/>
    <path d="M14.612793 25.602539c-1.247559 0-2.45166-.300781-3.414551-.930664l1.095703-1.673828c1.763184 1.15625 4.848633.65039 6.474121-1.055664 1.526856-1.604492 3.153809-2.419922 4.835938-2.421875h.0068c1.709472 0 3.384277.844726 4.977051 2.509765l-1.445313 1.382813c-1.201172-1.25586-2.38916-1.892578-3.532227-1.892578h-.0039c-1.113769.000976-2.254394.607422-3.389648 1.800781-1.406738 1.477539-3.563477 2.28125-5.604004 2.28125z" id="path8"/>
    <path d="M25.033203 11.941406c-2.764648 0-5.164551-1.404297-6.154297-3.8496092l1.853516-.75c.939941 2.3222656 3.854492 3.2333982 6.777832 2.1269531l.709961 1.8691401c-1.07666.40918-2.157227.603516-3.187012.603516z" id="path10"/>
    <path d="M22.430664 41.204102l-1.838867-.785157c1.059082-2.480468 3.90625-4.507812 7.657715-3.098632l-.703125 1.873046c-2.708008-1.017578-4.447754.448243-5.115723 2.010743z" id="path12"/>
    <path d="M14.277832 36.913086c-2.551269-.400391-4.875-2.792969-4.875-5.018555h2c0 1.144531 1.469727 2.773438 3.18457 3.041992z" id="path14"/>
    <path d="M13.569824 43.152344h-2c0-6.091797 3.751953-12.257813 10.922363-12.257813v2c-7.057617 0-8.922363 6.709961-8.922363 10.257813z" id="path16"/>
    <path d="M35.562012 50.539062H31.72998v-2h2.832032v-4.998046c0-.480469.342285-.893555.814453-.982422 2.169922-.410157 3.942383-1.12793 5.926269-2.400391.390137-.249023.897949-.200195 1.230957.119141l3.591797 3.43457 4.304688-4.313477-3.416993-3.438476c-.330566-.333008-.385253-.850586-.132324-1.245117 1.104981-1.722657 1.934571-3.368165 2.393067-5.798829.08935-.472656.501953-.814453.98291-.814453H55V22.4375h-4.743164c-.480957 0-.893555-.341797-.98291-.814453-.402832-2.136719-1.102539-3.842774-2.415528-5.888672-.249511-.389648-.199707-.899414.120606-1.232422l3.414062-3.554687-4.346191-4.3115238-3.504883 3.4296878c-.332519.325195-.845215.378906-1.239258.126953-1.972656-1.2656252-3.745117-1.9814455-5.926269-2.3935549-.472168-.0888672-.814453-.5019531-.814453-.9824219V2h-2.832031V0h3.832031c.552246 0 1 .4472656 1 1v5.0048828c1.825683.4238281 3.460449 1.0869141 5.140625 2.0839844l3.649902-3.5712891c.390137-.3828125 1.015137-.3808594 1.40332.00488L52.5 10.220703c.387695.384766.395508 1.008789.01709 1.402344l-3.556641 3.703125c.79541 1.321289 1.597168 2.944336 2.106445 5.111328H56c.552246 0 1 .447266 1 1v7.664062c0 .552735-.447754 1-1 1h-4.933105c-.494629 2.100586-1.264649 3.66504-2.076661 5.010743l3.560547 3.582031c.388184.390625.387207 1.021484-.0015 1.411133l-5.699218 5.711914c-.384278.386719-1.00586.393555-1.398926.0166l-3.740235-3.576171c-1.704589 1.016601-3.311035 1.670898-5.148925 2.095703v5.185547c0 .552734-.447754.999999-1 .999999z" id="path18"/>
    <path d="M31.72998 36.306641v-2c5.083008 0 9.21875-4.094727 9.21875-9.12793 0-5.033203-4.135742-9.12793-9.21875-9.12793v-2c6.186036 0 11.21875 4.992188 11.21875 11.12793s-5.032714 11.12793-11.21875 11.12793z" id="path20"/>
    <path d="M9.3930664 28.807617l-.6669922-1.884765c1.1513672-.408204 2.0200198-1.735352 2.0200198-3.087891 0-1.595703-1.3027347-2.799805-3.0297855-2.799805v-2c2.8676755 0 5.0297855 2.063477 5.0297855 4.799805 0 2.194336-1.410156 4.285156-3.3530276 4.972656z" id="path22"/>
  </g>
</svg>
