<svg xmlns="http://www.w3.org/2000/svg" width="34.125" height="25" viewBox="0 0 9.028906 6.6145836">
  <path style="line-height:normal;font-variant-ligatures:normal;font-variant-position:normal;font-variant-caps:normal;font-variant-numeric:normal;font-variant-alternates:normal;font-feature-settings:normal;text-indent:0;text-align:start;text-decoration-line:none;text-decoration-style:solid;text-decoration-color:#000;text-transform:none;text-orientation:mixed;white-space:normal;shape-padding:0;isolation:auto;mix-blend-mode:normal;solid-color:#000;solid-opacity:1" d="M1.6779319 0C.7528719 0-.0000026.68355 0 1.52342v1.18649c0 .82417.7255061 1.49646 1.6267721 1.52136.1771465.30941.3546634.61871.5317517.92811l.5296826-.92605h2.2949508c.9250707 0 1.6784506-.68355 1.6784506-1.52342V1.52342C6.6616078.68355 5.9082279 0 4.9831572 0zm0 .53227h3.3052253c.61037 0 1.0919222.43699 1.0919222.99115v1.18649c0 .55417-.4815522.99116-1.0919222.99116H1.6779319c-.6103805 0-1.0919221-.43699-1.0919221-.99116V1.52342c0-.55416.4815416-.99115 1.0919221-.99115zm-.2816357.79055c-.1392767 0-.2511478.11238-.2511478.25166v.0264c0 .13928.1118711.25115.2511478.25115h3.7372396c.1392767 0 .2511478-.11187.2511478-.25115v-.0264c0-.13928-.1118711-.25166-.2511478-.25166zm5.8342689.13239v.53227h.1204066c.6103805 0 1.0919222.43701 1.0919222.99115V4.1646c0 .55417-.4815417.99167-1.0919222.99167H4.989875c-.3591189 0-.6705917-.15423-.86868-.3917h-.6733461c.2572412.54242.8515959.92397 1.5420261.92397h1.5668281c.1767205.30867.353531.61739.5302012.92604l.5426022-.94878c.7926097-.12125 1.3993998-.74773 1.3993998-1.5012V2.97863c0-.83985-.752856-1.52342-1.6779346-1.52342zM1.3962962 2.46073c-.1392767 0-.2511478.11187-.2511478.25115v.0269c0 .13928.1118711.25115.2511478.25115h3.1253907c.1392766 0 .2511478-.11187.2511478-.25115v-.0269c0-.13928-.1118712-.25115-.2511478-.25115z" color="#000" font-weight="400" font-family="sans-serif" overflow="visible" fill="#0a2e57" paint-order="fill markers stroke"/>
</svg>
