<svg xmlns="http://www.w3.org/2000/svg" height="50" width="50" viewBox="0 0 16.666667 16.666667">
  <path d="M22.798467 14.330903c.119139.09143.260149.137583.401493.137583.123446 0 .247225-.03523.356752-.106175l4.374164-2.830638 4.373998 2.830638c.234963.15242.535047.139928.758245-.0314.222868-.171331.324442-.467146.256337-.747866l-1.258331-5.1933583 3.96273-3.511536c.211767-.1876388.293125-.4913483.20547-.7669516-.087656-.2756034-.326596-.4676656-.603648-.4849292l-5.142185-.3204524-1.921958-5.056022c-.102905-.2703977-.352777-.4478885-.630658-.4478885-.277879 0-.527756.1774892-.630656.4478015l-1.922126 5.056109-5.142186.3204524c-.277051.017263-.515993.2093258-.603648.4849292-.08765.2756033-.0063.5793128.205469.7669516l3.962729 3.511536-1.258329 5.1933473c-.06811.280721.03346.576537.256338.747869zm-.79006-9.3912454l3.881039-.2418579c.262966-.0163976.492959-.1905027.590391-.4465862L27.930876.43414763 29.38175 4.2511265c.09743.2561705.327425.4302784.59039.4466732l3.881039.2418579-2.992719 2.6519321c-.198011.175494-.283183.453875-.219386.717246l.94996 3.9207353L28.28763 10.0918c-.218393-.1415763-.495113-.1415763-.713506 0l-3.303573 2.137855.94996-3.9208203c.0638-.263373-.02138-.5417522-.219387-.7172461z" fill="#3e8e94"/>
  <path d="M8.3333335 5.9283235a3.1562459 3.1562457 0 00-3.1562457 3.1562454 3.1562459 3.1562457 0 003.1562457 3.1562461A3.1562459 3.1562457 0 0011.48958 9.0845689a3.1562459 3.1562457 0 00-3.1562465-3.1562454zm0 .5049993a2.6512464 2.6512463 0 012.6512475 2.6512461 2.6512464 2.6512463 0 01-2.6512475 2.6512471 2.6512464 2.6512463 0 01-2.6512462-2.6512471 2.6512464 2.6512463 0 012.6512462-2.6512461z" fill="#3e8e94" stroke="#3e8e94" stroke-width=".40170398" stroke-linecap="round" stroke-linejoin="round"/>
  <path d="M8.3333335 7.48697948a1.58333336 1.58333336 0 00-1.58333336 1.58203103h.58398434a.99999999.99999999 0 01-.000651-.00911433.99999999.99999999 0 011.00000002-1.00000002v-.57291668z" fill="#3e8e94"/>
  <path d="M8.3333335.47070314L6.4928388 6.4459638H.47070314l4.87109397 3.73828107-1.8515627 6.01171912 4.84309909-3.71614607 4.8430991 3.71614607-1.8515627-6.01171912L16.195964 6.4459638h-6.0221358z" fill="none" stroke="#3e8e94" stroke-width=".9414672485667" stroke-linejoin="round"/>
</svg>
