<svg xmlns="http://www.w3.org/2000/svg" width="50" height="50" viewBox="0 0 13.229166 13.229167">
  <g stroke="#fff" stroke-width="1.02658331" fill="none">
    <g stroke-width="1.02593482">
      <path d="M6.6155211 295.15652a1.732223 1.732223 0 01-1.622168 1.58824 1.732223 1.732223 0 01-1.801354-1.38169 1.732223 1.732223 0 011.1135473-1.97838" stroke-linecap="round" stroke-linejoin="round" transform="matrix(.96266 0 0 .96212 .25103037 -272.77162444)"/>
      <path d="M3.3606685 294.16252a1.732223 1.732223 0 01-1.9238687.59146 1.732223 1.732223 0 01-1.18452577-1.62727 1.732223 1.732223 0 011.15404117-1.64902M1.4481995 291.43551a1.732223 1.732223 0 01-1.17438735-1.92016 1.732223 1.732223 0 011.71373575-1.45921 1.732223 1.732223 0 011.7083974 1.46546" stroke-linecap="round" stroke-linejoin="round" transform="matrix(.96266 0 0 .96212 .25103037 -272.77162444)"/>
      <path d="M1.3843881 288.13824a1.732223 1.732223 0 01.3569512-2.14751 1.732223 1.732223 0 012.1745548-.10263M3.1786308 285.45582a1.732223 1.732223 0 011.8767028-1.42354 1.732223 1.732223 0 011.5610575 1.76397M3.4394516 290.38223a1.732223 1.732223 0 011.2586081-1.47093" stroke-linecap="round" stroke-linejoin="round" transform="matrix(.96266 0 0 .96212 .25103037 -272.77162444)"/>
      <path d="M6.6145832 285.81728l-3e-7 9.3758" transform="matrix(.96266 0 0 .96212 .25103037 -272.77162444)"/>
    </g>
    <g stroke-width="1.02593732">
      <path d="M6.6155211 295.15652a1.732223 1.732223 0 01-1.3112565 1.54089 1.732223 1.732223 0 01-1.87776-.75349 1.732223 1.732223 0 01.1175744-2.01988" stroke-linecap="round" stroke-linejoin="round" transform="matrix(-.96265 0 0 .96212 12.97809366 -272.771653)"/>
      <path d="M3.7051682 292.91152a1.732223 1.732223 0 01-1.3932494 1.90006 1.732223 1.732223 0 01-1.99914518-1.2469 1.732223 1.732223 0 011.09354158-2.08699M1.4481995 291.43551a1.732223 1.732223 0 01-1.15500022-2.02196 1.732223 1.732223 0 011.90112852-1.34464" stroke-linecap="round" stroke-linejoin="round" transform="matrix(-.96265 0 0 .96212 12.97809366 -272.771653)"/>
      <path d="M1.3843881 288.13824a1.732223 1.732223 0 01.07468-1.8259 1.732223 1.732223 0 011.6696019-.74291M3.1651795 285.54614a1.732223 1.732223 0 011.8446618-1.51776 1.732223 1.732223 0 011.6065498 1.76787" stroke-linecap="round" stroke-linejoin="round" transform="matrix(-.96265 0 0 .96212 12.97809366 -272.771653)"/>
      <path d="M6.6145832 285.81728l-3e-7 9.3758" transform="matrix(-.96265 0 0 .96212 12.97809366 -272.771653)"/>
    </g>
    <path d="M6.6145832 289.6781h1.5037287" transform="matrix(.96205 0 0 .96151 .25099018 -272.59753)"/>
    <path d="M-8.3026528 288.29734a1.7333053 1.7333221 0 01.1564306 1.59063 1.7333053 1.7333221 0 01-1.2115955 1.04239" transform="matrix(-.96205 0 0 .96151 .25099018 -272.59753)" stroke-linecap="round" stroke-linejoin="round"/>
  </g>
</svg>
