<svg xmlns="http://www.w3.org/2000/svg" width="50" height="50" viewBox="0 0 13.229166 13.229167">
  <path d="M.22991486 3.62305L6.6145836.5175l6.3846684 3.10555L6.6145836 6.7286z" fill="#fff" fill-rule="evenodd" stroke="#fdffff" stroke-width=".45988861" stroke-linecap="round" stroke-linejoin="round"/>
  <path d="M2.8902628 6.37261v3.91397s2.3637276 1.9043 3.7243204 1.9043 3.7243208-1.9043 3.7243208-1.9043V6.37261L6.6145832 8.18439z" fill="#fff" stroke="#fff" stroke-width=".48906711" stroke-linecap="round"/>
  <path d="M12.503166 5.25016c-.08986.0379-.149037.0645-.229071.0983v5.06632a.86495083.71838413 0 01.129059-.009.86495083.71838413 0 01.09867.006z" fill="#fff" stroke="#fff" stroke-width=".20642589" stroke-linecap="round"/>
  <path d="M12.393078 10.78546a.66431348.826798 0 00-.661719.75703h1.322917a.66431348.826798 0 00-.661198-.75703z" fill="#fff"/>
  <path fill="#fbffff" d="M11.79751 11.80704h.26458356v1.1575531H11.79751zM12.26053 11.80704h.26458356v1.1575531H12.26053zM12.723554 11.80704h.26458356v1.1575531H12.723554z"/>
</svg>
