<svg xmlns="http://www.w3.org/2000/svg" width="50" height="50" viewBox="0 0 13.229166 13.229167">
  <path d="M6.89466958.0056844a6.61458299 6.61458299 0 00-4.16822091 1.25780435A6.61458299 6.61458299 0 001.31878254 2.6515176a6.61458299 6.61458299 0 00-.05581055 7.85120022 6.61458299 6.61458299 0 007.66619867 2.30786964 6.61458299 6.61458299 0 001.57354717-.84490982A6.61458299 6.61458299 0 0013.2234822 6.8951863a6.61458299 6.61458299 0 00-1.25832127-4.16977137A6.61458299 6.61458299 0 008.83511948.38343914 6.61458299 6.61458299 0 006.89466958.0056844zm-.28060306 1.3167155a1.65364581 1.65364581 0 011.65364581 1.65416256 1.65364581 1.65364581 0 01-1.21129556 1.5931843 1.65364581 1.65364581 0 01-.44235025.05994478 1.65364581 1.65364581 0 01-1.65312908-1.6536458 1.65364581 1.65364581 0 011.65312908-1.65364585zm3.43699937 2.51405839a1.65364581 1.65364581 0 011.59628494 1.1425658 1.65364581 1.65364581 0 01-1.0619507 2.08359372A1.65364581 1.65364581 0 018.5018064 6.00066737a1.65364581 1.65364581 0 011.06143397-2.08359372 1.65364581 1.65364581 0 01.48782552-.08061536zm-6.8254231.00103346a1.65364581 1.65364581 0 01.44028334.0795819A1.65364581 1.65364581 0 014.806425 5.56141751a1.65364581 1.65364581 0 01-.0795819.43924986 1.65364581 1.65364581 0 01-.99528788 1.03869621 1.65364581 1.65364581 0 01-1.08830574.02325423A1.65364581 1.65364581 0 011.5812988 4.9790241 1.65364581 1.65364581 0 013.2256428 3.83749175zm3.38894046 1.9502686a.82682288.82682288 0 01.8268229.8268229.82682288.82682288 0 01-.8268229.8268229.82682288.82682288 0 01-.8268229-.8268229.82682288.82682288 0 01.8268229-.8268229zm2.09134522 2.11666663a1.65364581 1.65364581 0 01.49040917.05994453 1.65364581 1.65364581 0 01.8945192.62063418 1.65364581 1.65364581 0 01.31522617.92500793 1.65364581 1.65364581 0 01-.68109544 1.38492836 1.65364581 1.65364581 0 01-.43821614.2273763 1.65364581 1.65364581 0 01-1.87172015-.59272857 1.65364581 1.65364581 0 01.04289133-2.00142816 1.65364581 1.65364581 0 01.32246094-.3085084 1.65364581 1.65364581 0 01.92552492-.31522617zm-4.30051257.00051673a1.65364581 1.65364581 0 01.64905598.10283614 1.65364581 1.65364581 0 01.39325761.2118733 1.65364581 1.65364581 0 01.68057844 1.26710624 1.65364581 1.65364581 0 01-.31470944 1.04283032 1.65364581 1.65364581 0 01-.7823811.58497707 1.65364581 1.65364581 0 01-1.52703846-.2196248 1.65364581 1.65364581 0 01-.36586927-2.30941956 1.65364581 1.65364581 0 011.26710624-.6805787z" fill="#fff"/>
</svg>
