<svg xmlns="http://www.w3.org/2000/svg" width="50" height="50" viewBox="0 0 13.229166 13.229167">
  <g stroke="#fff" stroke-linejoin="round">
    <path d="M2.3248612 5.75797h8.3286098L8.82533 12.76364H4.1530066z" fill="#fff" stroke-width=".93182504" stroke-linecap="round"/>
    <path d="M8.4735455 7.27604H11.96037c.583171 0 .878218.70871.596466 1.70089-.494394 1.6064-.726917 1.6064-1.316983 1.6064H8.4735455h0" fill="none" stroke-width=".79374999"/>
    <path d="M4.5047972 4.7092s-.687628-.32841-.9222201-1.10807c-.1605432-.56427-.1608939-.66276-.094243-.95178.1705612-.72535 1.2587978-.82223 1.3193818-1.21842.031706-.39356-.3029191-.36719-.3029203-1.24533 0 0 .9231604.78908 1.0501188 1.24533.1269587.45625-.1200071.90521-.4038916 1.1672-.3579322.30237-.646226.65969-.7943206 1.003-.1658457.55753.1480934 1.10807.1480934 1.10807z" fill="#fff" fill-rule="evenodd" stroke-width=".10662202"/>
    <path d="M6.7008067 4.72443s-.4911627-.23458-.6587285-.79148c-.1146737-.40305-.1149242-.4734-.067316-.67984.1218294-.51811.8991411-.58731.9424154-.8703.022647-.28112-.2163708-.26228-.2163716-.88952 0 0 .6594004.56363.7500846.88952.090685.32589-.085719.64658-.2884939.83371-.2556658.21598-.4615899.47121-.5673717.71643-.1184612.39824.105781.79148.1057817.79148z" fill="#fff" fill-rule="evenodd" stroke-width=".07615858"/>
    <path d="M8.4735867 4.73966s-.2947233-.14076-.3952716-.47493c-.06881-.24185-.06896-.28407-.040393-.40794.073104-.3109.5395318-.35242.5654986-.52222.013589-.1687-.1298338-.15739-.1298343-.53377 0 0 .3956747.33821.45009.53377.054416.19554-.051435.38798-.1731115.50026-.1534128.1296-.276978.28275-.3404526.4299-.071083.23897.063474.47493.063474.47493z" fill="#fff" fill-rule="evenodd" stroke-width=".04569913"/>
  </g>
</svg>
