<svg xmlns="http://www.w3.org/2000/svg" viewBox="0 0 512 512" fill-rule="evenodd" clip-rule="evenodd" stroke-linejoin="round" stroke-miterlimit="2">
  <path d="M64 0C28.677 0 0 28.677 0 64v384c0 35.323 28.677 64 64 64h384c35.323 0 64-28.677 64-64V64c0-35.323-28.677-64-64-64H64zm40.51172 54.279297c29.324 0 47.38055 19.291219 47.93555 44.574219 0 24.752004-18.61263 44.574214-48.51563 44.574214h-.55469C74.587956 143.42773 56 123.60552 56 98.853516c0-25.283 19.170718-44.574219 48.51172-44.574219zM357.27734 172.60156c56.415 0 98.72071 36.85871 98.72071 116.09571v147.93164h-85.74024V298.60742c0-34.663-12.4255-58.32617-43.4375-58.32617-23.688 0-37.80419 15.95156-43.99219 31.35156-2.273 5.511-2.82617 13.22064-2.82617 20.93164v144.06446h-85.73828s1.137-233.76394 0-257.96094h85.73828v36.52148c11.41-17.572 31.78539-42.58789 77.27539-42.58789zm-296.224606 6.06641H146.8125v257.96094H61.052734V178.66797z"/>
</svg>
