<svg xmlns="http://www.w3.org/2000/svg" preserveAspectRatio="xMinYMin meet" width="50" height="50">
  <path d="M0 4.176973C0 1.870095 1.8688052.000001 4.1769719.000001H45.823028C48.129906.000001 50 1.868805 50 4.176973v41.646055C50 48.129906 48.131195 50 45.823028 50H4.1769719C1.8700938 50 0 48.131195 0 45.823028zm19.791667 14.885528H26.5625v3.402082c.976042-1.95625 3.477083-3.714582 7.234375-3.714582 7.202083 0 8.911458 3.893749 8.911458 11.038541v13.232291h-7.291666V31.415625c0-4.06875-.976042-6.363542-3.458334-6.363542-3.442708 0-4.875 2.473959-4.875 6.363542v11.605208h-7.291666zM7.2916667 42.708333h7.2916663V18.750001H7.2916667zM15.625 10.937501c0 2.588542-2.098958 4.6875-4.6875 4.6875-2.5885417 0-4.6875-2.098958-4.6875-4.6875s2.0989583-4.6875 4.6875-4.6875c2.588542 0 4.6875 2.098958 4.6875 4.6875z" class="background" fill="#eeeeee" fill-rule="evenodd"/>
</svg>
