<svg xmlns="http://www.w3.org/2000/svg" viewBox="0 0 26.458333 15.875">
  <path d="M9.0149902.00099A.69605025.69605853 0 008.44862.34825L.09312594 14.83114a.69605025.69605853 0 00.60306048 1.04387H4.7667063l.8030432-1.39217H1.9012713L9.0516795 2.08873l2.9910075 5.1847.382917.66405.803564 1.39267 2.972922 5.15269H10.256246l2.373478-4.11399-.803044-1.39267-3.37806 5.85496a.69605025.69605853 0 00.6030595 1.04387h8.3554945a.69605025.69605853 0 00.602541-1.04387l-2.823577-4.8943-1.153407-1.99936-.803563-1.39268-2.202433-3.81736L9.6542203.34825a.69605025.69605853 0 00-.6392301-.34726zm8.3549768 0a.69605025.69605853 0 00-.565852.34726l-2.976021 5.15784.80356 1.39269 2.77552-4.81005 7.150409 12.39411h-2.865954l-.803043 1.39217h4.873563a.69605025.69605853 0 00.60306-1.04387L18.009715.34825a.69605025.69605853 0 00-.639748-.34726z" style="line-height:normal;font-variant-ligatures:normal;font-variant-position:normal;font-variant-caps:normal;font-variant-numeric:normal;font-variant-alternates:normal;font-feature-settings:normal;text-indent:0;text-align:start;text-decoration-line:none;text-decoration-style:solid;text-decoration-color:#000;text-transform:none;text-orientation:mixed;white-space:normal;shape-padding:0;isolation:auto;mix-blend-mode:normal;solid-color:#000;solid-opacity:1" color="#000" font-weight="400" font-family="sans-serif" overflow="visible" fill="#0a2e57"/>
</svg>
