<svg xmlns="http://www.w3.org/2000/svg" width="50" height="50" viewBox="0 0 13.229166 13.229167">
  <g fill="#3e8e94">
    <path d="M21.87537125-1.8898809A6.61458299 6.61458299 0 0015.260788 4.72470235a6.61458299 6.61458299 0 006.61458325 6.61458325 6.61458299 6.61458299 0 006.61458325-6.61458325A6.61458299 6.61458299 0 0026.90968929.43710882l-.75292558.7529256a5.5562502 5.5562502 0 011.27485747 3.53466793 5.5562502 5.5562502 0 01-5.55624993 5.55624993 5.5562502 5.5562502 0 01-5.55624993-5.55624993 5.5562502 5.5562502 0 015.55624993-5.55624993A5.5562502 5.5562502 0 0125.40952245.4402094l.747758-.7472412a6.61458299 6.61458299 0 00-4.2819092-1.5828491z"/>
    <path d="M21.87537125.22678574a4.49791661 4.49791661 0 00-2.78174235.96996672l.75447604.75447577a3.43958329 3.43958329 0 012.02726631-.66610917 3.43958329 3.43958329 0 013.43958329 3.43958329 3.43958329 3.43958329 0 01-.66455898 2.02623285l.7570597.7570597a4.49791661 4.49791661 0 00.9658326-2.78329255A4.49791661 4.49791661 0 0021.87537125.22678574zm-3.53260073 1.71565753a4.49791661 4.49791661 0 00-.96531588 2.78225908 4.49791661 4.49791661 0 00.97100018 2.78329254l.75447577-.75447577a3.43958329 3.43958329 0 01-.66714263-2.02881677 3.43958329 3.43958329 0 01.66404225-2.02519939zm5.55883358 5.55676666a3.43958329 3.43958329 0 01-2.02623285.66507571 3.43958329 3.43958329 0 01-2.0236492-.66300852l-.75705969.7570597a4.49791661 4.49791661 0 002.78070889.96428214 4.49791661 4.49791661 0 002.78122562-.968933z"/>
    <path d="M21.87537125 2.34345238a2.38124992 2.38124992 0 00-2.38124997 2.38124997 2.38124992 2.38124992 0 002.38124997 2.38124997 2.38124992 2.38124992 0 002.31872152-1.85208331h-1.10690923a1.32291662 1.32291662 0 01-1.21181229.79374999 1.32291662 1.32291662 0 01-1.32291665-1.32291665 1.32291662 1.32291662 0 011.32291665-1.32291665 1.32291662 1.32291662 0 011.21077883.79374999h1.10845942a2.38124992 2.38124992 0 00-2.31923825-1.85208331zM16.05453799 4.1955391h1.5875v1.0583333h-1.5875z"/>
    <path d="M22.4045377 6.8413491v1.5875h-1.0583333v-1.5875zM26.108705 4.1955391h1.5875v1.0583333h-1.5875zM22.4045377 1.0205191v1.5875h-1.0583333v-1.5875zM6.61458325 0A6.61458299 6.61458299 0 000 6.61458325a6.61458299 6.61458299 0 006.61458325 6.61458325 6.61458299 6.61458299 0 006.61458325-6.61458325 6.61458299 6.61458299 0 00-1.495516-4.18269039l-.56172284.5617228a5.82083326 5.82083326 0 011.26348885 3.62096759 5.82083326 5.82083326 0 01-5.82083326 5.82083326A5.82083326 5.82083326 0 01.79374999 6.61458325 5.82083326 5.82083326 0 016.61458325.79374999a5.82083326 5.82083326 0 013.61786695 1.2686564l.56585696-.56637369A6.61458299 6.61458299 0 006.61458325 0z"/>
    <path d="M7.9061925 5.34845a1.8520833 1.8520833 0 00-2.6192414 0 1.8520833 1.8520833 0 000 2.61924 1.8520833 1.8520833 0 002.0645526.38075l-.639463-.63946a1.0583333 1.0583333 0 01-.8638236-.30256 1.0583333 1.0583333 0 010-1.49671 1.0583333 1.0583333 0 011.4967094 0 1.0583333 1.0583333 0 01.3032883.86456l.6376361.63763a1.8520833 1.8520833 0 00-.3796584-2.06345zM.66145831 6.21772h1.8520833v.79374999H.66145831z"/>
    <path d="M6.2177081 4.89478V3.0426967h.79374999V4.89478zM9.78830947 9.23104702l1.30962066 1.30962066-.561266.561266-1.30962066-1.30962066z"/>
    <path d="M6.61458325 2.38124997a4.23333302 4.23333302 0 00-2.48098545.80821952l.56895761.56947408a3.43958329 3.43958329 0 011.91202784-.58394361 3.43958329 3.43958329 0 013.43958329 3.43958329 3.43958329 3.43958329 0 01-3.43958329 3.43958329 3.43958329 3.43958329 0 01-1.9192626-.58704426l-.56740742.56689042a4.23333302 4.23333302 0 002.48667002.81390383 4.23333302 4.23333302 0 004.23333328-4.23333328 4.23333302 4.23333302 0 00-4.23333328-4.23333328zM3.19773772 4.12481284a4.23333302 4.23333302 0 00-.81648775 2.48977041 4.23333302 4.23333302 0 00.81080318 2.48460283l.56895761-.5689576a3.43958329 3.43958329 0 01-.5860108-1.91564523 3.43958329 3.43958329 0 01.58962818-1.92287999l-.56689042-.56689042z"/>
  </g>
</svg>
