<svg xmlns="http://www.w3.org/2000/svg" width="28.572001" height="25" viewBox="0 0 7.559675 6.6145835">
  <path style="line-height:normal;font-variant-ligatures:normal;font-variant-position:normal;font-variant-caps:normal;font-variant-numeric:normal;font-variant-alternates:normal;font-feature-settings:normal;text-indent:0;text-align:start;text-decoration-line:none;text-decoration-style:solid;text-decoration-color:#000;text-transform:none;text-orientation:mixed;white-space:normal;shape-padding:0;isolation:auto;mix-blend-mode:normal;solid-color:#000;solid-opacity:1" d="M2.9019154.00115c-.05488.002-.109922.008-.164849.017-.427702.072-.791887.35087-.976167.74197-.244882-.009-.494035.0466-.71727.17774-.53545003.31478-.770104.96136-.58239204 1.54543-.18288596.15729-.32642696.36248-.40204496.60505-.150929.48415-.0052.99985.345717 1.34081-.253846.64898.04257 1.39487.681612 1.68597.290655.13239.604729.14375.892969.0651.218654.23995.519017.39469.847492.42679.3439319.0336.683609-.07.950326-.28212.2709701.21627.6187699.31968.9673899.28212.32243-.0347.6161702-.18815.8314701-.42369.16823.0464.34584.0638.52607.0393.5696098-.0777 1.0261899-.51761 1.1249898-1.08402.0424-.24312.011099-.48525-.0744-.70529.27456-.26465.4278598-.63801.4046299-1.02873-.0215-.36198-.1917501-.69251-.4583699-.92281.1866-.58366-.05-1.22938-.58498-1.54388C6.2908483.8067 6.0417481.75114 5.7968381.76015c-.18493-.39247-.55029-.67112-.9797899-.74197-.37206-.0614-.7482099.0408-1.0381801.27178C3.53059.09203 3.219803-.01194 2.9019252.00113zm.1147198.58335c.1794913.0146.3490521.0953.4759413.22941v4.9866c-.1573591.1655-.3820883.25109-.6092672.22889-.132149-.0129-.2537509-.0645-.3586349-.14054.124616-.11257.2298231-.25011.3059249-.41025l-.5270979-.25008c-.17512.36851-.603708.5265-.974619.35755-.33076603-.15066-.49603004-.50667-.41289304-.84738.47369204.15247 1.00114604.0249 1.35443904-.34101.224359.13522.4860929.20212.7518909.18859l-.02946-.58025c-.200133.0102-.3963669-.0606-.5431179-.19737-.146751-.13669-.231984-.32841-.236161-.5291l-.582393.0139c.0052.25246.0865.49397.223758.70116-.233905.24383-.598832.30155-.89555104.13434-.30598599-.17243-.45036099-.53133-.34571498-.86701.10464499-.33568.42605302-.54946.77566302-.51721l.05478-.58025c-.157477-.0145-.312414.00027-.45888803.0393-.05225-.2992.08176-.60392.35346803-.76367.317542-.18668.718674-.11469.950846.17154l.4532021-.36685c-.1125241-.13873-.2503751-.24609-.4004921-.32655.112049-.17011.285867-.29158.490411-.32603.06163-.0104.1232508-.0127.1839669-.008zm1.5218731.00052c.061-.005.1225999-.003.1844802.007.2053799.0339.3811598.155.4940297.32551-.1498597.0805-.2872798.18813-.3999799.32707l.45114.36685c.23217-.28623.63382-.35822.9513599-.17154.2717001.15975.40572.46448.3534701.76367-.3980899-.10475-.82722-.0183-1.1554899.24078-.2564201-.19525-.5781299-.29387-.90537-.26816l.045.57973c.2362298-.0186.4669499.0776.6211499.25782.1541999.18022.21283.42115.1581301.65207l.56638.13486c.0736-.31043.0322-.63305-.11059-.91093.2132399-.16025.49569-.19436.7415599-.0868.2556901.11186.4247099.35551.4413099.6345.010999.1849-.0476.36209-.1576099.50223-.0842-.0779-.17663-.14821-.28164-.20306l-.2697501.51514c.28692.14989.4427601.46607.38706.78537-.0557.31931-.3082599.56332-.6289.60712-.3206499.0438-.6303899-.12326-.76947-.41594l-.5255498.25008c.0754.15872.1821199.29413.3069601.40767-.1033503.0754-.2233301.12696-.3539803.14105-.2252599.0243-.4483198-.0552-.6071999-.21701V.80594c.1251-.12769.2890001-.20626.4635399-.22115z" color="#000" font-weight="400" font-family="sans-serif" overflow="visible" fill="#0a2e57" paint-order="fill markers stroke"/>
</svg>
