<svg xmlns="http://www.w3.org/2000/svg" viewBox="0 0 360 21" fill="none">
  <path d="M0 0v21h360V0c-9.0939 0-13.4061 6-22.5 6S324.0939 0 315 0c-9.0938 0-13.4062 6-22.5 6S279.094 0 270 0c-9.09399 0-13.406 6-22.5 6S234.094 0 225 0s-14.5 6-22.5 6c-9 0-13.406-6-22.5-6s-13.406 6-22.5 6-13.406-6-22.5-6-13.406 6-22.5 6S99.094 0 90 0 76.594 6 67.5 6 54.09399 0 45 0c-9.094 0-13.40601 6-22.5 6C13.406 6 9.09399 0 0 0zM-6.2087425 197.7928v21H556.29126v-15s-13.406-6-22.5-6-13.406 6-22.5 6-13.406-6-22.5-6-13.4062 6-22.5 6-13.4062-6-22.5-6-13.4062 6-22.5 6c-9.0939 0-13.4061-6-22.5-6s-13.40614 6-22.5 6-13.4061-6-22.5-6-13.4061 6-22.5 6-13.4061-6-22.5-6c-9.0938 0-13.4062 6-22.5 6s-13.406-6-22.5-6c-9.09399 0-13.406 6-22.5 6s-13.406-6-22.5-6-14.5 6-22.5 6c-9 0-13.406-6-22.5-6s-13.406 6-22.5 6-13.406-6-22.5-6-13.406 6-22.5 6c-9.094002 0-13.406002-6-22.500002-6-9.094 0-13.406 6-22.5 6s-13.40601-6-22.5-6c-9.094 0-13.40601 6-22.5 6-9.0940005 0-13.4060105-6-22.5000005-6z" fill="#15627b"/>
</svg>
