<svg xmlns="http://www.w3.org/2000/svg" aria-label="Instagram" class="_8-yf5" height="50" viewBox="0 0 100 100" width="50" fill="#262626">
  <path d="M29.375.270833A35.416667 35.416667 0 0017.166667 2.625a22.916667 22.916667 0 00-8.7500003 5.708333A25.458333 25.458333 0 002.5833333 17.25 37.5 37.5 0 00.27083333 29.375C0 34.6875 0 36.416667 0 50s0 15.25.27083333 20.625A37.5 37.5 0 002.5833333 82.75a23.8125 23.8125 0 005.8333334 8.916667A25.354167 25.354167 0 0017.166667 97.375a36.979167 36.979167 0 0012.125 2.354167C34.604167 100 36.333333 100 49.916667 100c13.583333 0 15.25 0 20.625-.270833A37.125 37.125 0 0082.6875 97.375a23.75 23.75 0 008.895833-5.708333A24.875 24.875 0 0097.375 82.833333a36.875 36.875 0 002.354167-12.125C100 65.395833 100 63.666667 100 50.083333c0-13.583333 0-15.25-.270833-20.625A35.416667 35.416667 0 0097.375 17.25a23.5625 23.5625 0 00-5.791667-8.916667 25.270833 25.270833 0 00-8.8125-5.791666A37.125 37.125 0 0070.625.270833C65.3125 0 63.583333 0 50 0S34.770833 0 29.375.270833M29.791667 90.625a27.4375 27.4375 0 01-9.3125-1.729167 15.104167 15.104167 0 01-5.708334-3.729166 15.104167 15.104167 0 01-3.729166-5.708334 27.5625 27.5625 0 01-1.729167-9.3125c-.2083333-5.25-.2708333-6.833333-.2708333-20.208333s0-14.895833.2708333-20.208333a26.625 26.625 0 011.729167-9.25A15.354167 15.354167 0 0114.770833 14.75a15.3125 15.3125 0 015.708334-3.708333 27.4375 27.4375 0 019.3125-1.729167C35.041667 9.104167 36.625 9.041667 50 9.041667s14.895833 0 20.208333.270833a26.625 26.625 0 019.25 1.729167 16.291667 16.291667 0 019.4375 9.4375 27.333333 27.333333 0 011.729167 9.25c.270833 5.229166.270833 6.8125.270833 20.208333s0 14.895833-.270833 20.208333a27.5625 27.5625 0 01-1.729167 9.3125 16.458333 16.458333 0 01-9.4375 9.4375 27.083333 27.083333 0 01-9.25 1.729167c-5.229166.208333-6.833333.270833-20.208333.270833s-14.895833 0-20.208333-.270833M70.6875 23.25a6 6 0 106-6 6.0208333 6.0208333 0 00-6 6M24.354167 50A25.666667 25.666667 0 1050 24.270833 25.6875 25.6875 0 0024.354167 50M33.375 50a16.666667 16.666667 0 1116.666667 16.666667A16.666667 16.666667 0 0133.375 50" fill="#3e8e94"/>
</svg>
