<?xml version="1.0" standalone="no"?>
<!DOCTYPE svg PUBLIC "-//W3C//DTD SVG 20010904//EN"
 "http://www.w3.org/TR/2001/REC-SVG-20010904/DTD/svg10.dtd">
<svg version="1.0" xmlns="http://www.w3.org/2000/svg"
 width="260.000000pt" height="260.000000pt" viewBox="0 0 260.000000 260.000000"
 preserveAspectRatio="xMidYMid meet">
<metadata>
Created by potrace 1.11, written by Peter Selinger 2001-2013
</metadata>
<g transform="translate(0.000000,260.000000) scale(0.100000,-0.100000)"
fill="#000000" stroke="none">
<path d="M203 2582 c-100 -35 -171 -115 -193 -216 -8 -36 -10 -361 -8 -1096
l3 -1045 28 -57 c32 -64 80 -111 146 -142 46 -21 49 -21 1121 -21 1072 0 1075
0 1121 21 66 31 114 78 146 142 l28 57 0 1075 c0 1072 0 1075 -21 1121 -31 66
-78 114 -142 146 l-57 28 -1060 2 c-997 2 -1063 1 -1112 -15z m784 -639 c30
-27 713 -1219 713 -1244 0 -12 -7 -31 -17 -41 -15 -17 -40 -18 -381 -18 -326
0 -367 2 -384 17 -10 9 -18 27 -18 40 0 13 64 134 142 269 l141 246 33 -58
c33 -58 33 -58 15 -89 -78 -130 -171 -295 -171 -304 0 -8 76 -11 240 -11 155
0 240 4 240 10 0 14 -581 1020 -589 1020 -5 -1 -582 -998 -589 -1020 -2 -6 53
-10 147 -10 l150 0 -32 -55 -31 -55 -178 0 c-165 0 -179 1 -198 20 -11 11 -20
27 -20 36 0 18 684 1209 713 1242 25 27 48 28 74 5z m700 -5 c29 -33 713
-1224 713 -1242 0 -9 -9 -25 -20 -36 -19 -19 -33 -20 -231 -20 l-211 0 31 52
30 53 121 3 c71 1 120 7 118 12 -8 23 -584 1019 -589 1020 -4 0 -57 -88 -119
-196 l-113 -196 -33 58 -33 58 18 31 c10 16 65 111 121 210 57 99 112 188 123
198 26 23 49 22 74 -5z"/>
</g>
</svg>
