<svg xmlns="http://www.w3.org/2000/svg" viewBox="0 0 13.229166 13.229167">
  <g fill="#3e8e94">
    <path d="M6.61458325.0666626A6.54776908 6.54776564 0 00.0666626 6.61458325a6.54776908 6.54776564 0 006.54792065 6.54792069 6.54776908 6.54776564 0 006.54792069-6.54792069A6.54776908 6.54776564 0 006.61458325.0666626zm0 .72708739a5.82083326 5.82083326 0 015.82083326 5.82083326 5.82083326 5.82083326 0 01-5.82083326 5.82083326A5.82083326 5.82083326 0 01.79374999 6.61458325 5.82083326 5.82083326 0 016.61458325.79374999z" stroke="#3e8e94" stroke-width=".1336262401236" stroke-linecap="round" stroke-linejoin="round"/>
    <path d="M7.5406249 3.44061675v1.05368248a2.31510424 2.31510424 0 011.19269191 1.19424236H9.7869993A3.30729162 3.30729162 0 007.5406249 3.44061676zm-1.8520833.0020672A3.30729162 3.30729162 0 003.4416502 5.6885416h1.05264902a2.31510424 2.31510424 0 011.19424236-1.19269191V3.44268394zM3.4421672 7.5406249A3.30729162 3.30729162 0 005.6885416 9.78854975V8.73486727A2.31510424 2.31510424 0 014.49584969 7.5406249H3.4421672zm5.29270006 0A2.31510424 2.31510424 0 017.5406249 8.7333168v1.05316575A3.30729162 3.30729162 0 009.7875163 7.5406249H8.73486727zM2.3812499 6.15155h2.6458333v.92604166H2.3812499zM8.2020836 6.15155h2.6458333v.92604166H8.2020836zM7.0776088 2.38125715v2.6458333h-.92604166v-2.6458333zM7.0776088 8.2020909v2.6458333h-.92604166V8.2020909z"/>
  </g>
</svg>
